<svg xmlns="http://www.w3.org/2000/svg" viewBox="0 0 24 24">
  <path fill="#242521" fill-rule="evenodd" d="M10.15 2.25h3.7l.54 2.16c.52.14 1.01.35 1.46.61l1.94-1.1 2.62 2.62-1.1 1.94c.26.45.47.94.61 1.46l2.16.54v3.7l-2.16.54a8.3 8.3 0 0 1-.61 1.46l1.1 1.94-2.62 2.62-1.94-1.1a8.3 8.3 0 0 1-1.46.61l-.54 2.16h-3.7l-.54-2.16a8.3 8.3 0 0 1-1.46-.61l-1.94 1.1-2.62-2.62 1.1-1.94a8.3 8.3 0 0 1-.61-1.46l-2.16-.54v-3.7l2.16-.54c.14-.52.35-1.01.61-1.46l-1.1-1.94 2.62-2.62 1.94 1.1c.45-.26.94-.47 1.46-.61l.54-2.16Zm1.85 6.1a3.65 3.65 0 1 0 0 7.3 3.65 3.65 0 0 0 0-7.3Z"/>
</svg>
